Coordinates
version=1
nRows=29
nColumns=22
inDegrees=yes

Units are S.I. units (second, meters, Newtons, ...)
If the header above contains a line with 'inDegrees', this indicates whether rotational values are in degrees (yes) or radians (no).

endheader
time	pelvis_tilt	pelvis_list	pelvis_rotation	pelvis_tx	pelvis_ty	pelvis_tz	hip_flexion_r	hip_adduction_r	hip_rotation_r	knee_angle_r	ankle_angle_r	subtalar_angle_r	hip_flexion_l	hip_adduction_l	hip_rotation_l	knee_angle_l	ankle_angle_l	subtalar_angle_l	lumbar_extension	lumbar_bending	lumbar_rotation
      0.01000000	      0.48509949	     -1.70054317	     -1.52327777	      1.09145341	      0.92453938	      0.12417716	     -3.17683404	      3.75066477	     -0.51353072	     -6.89039233	      4.47329541	      0.43922937	     -1.78583359	     -2.86982546	     -9.90278420	     -9.61759245	      8.21824396	     -0.38628947	     -4.06210922	     -1.18912966	      2.01661298
      0.02000000	      0.48833537	     -1.70096699	     -1.51552072	      1.09144131	      0.92454366	      0.12415872	     -3.17982841	      3.75161041	     -0.50874953	     -6.89132000	      4.47554843	      0.43865637	     -1.78604774	     -2.87002991	     -9.90068539	     -9.61918053	      8.21659244	     -0.39156857	     -4.06342862	     -1.19997102	      2.02258788
      0.03000000	      0.52809558	     -1.66728432	     -1.53107345	      1.09145110	      0.92459936	      0.12414139	     -3.23218432	      3.71184771	     -0.43374720	     -6.87456218	      4.51313742	      0.42848664	     -1.84384746	     -2.82389165	     -9.89332934	     -9.59204145	      8.18986289	     -0.48765280	     -4.10601436	     -1.24813553	      2.05253568
      0.04000000	      0.54484992	     -1.66506059	     -1.52394573	      1.09142955	      0.92461862	      0.12410499	     -3.23852084	      3.70856844	     -0.40444728	     -6.89540570	      4.50830046	      0.42755909	     -1.85255682	     -2.82071765	     -9.87775120	     -9.60538605	      8.18371444	     -0.49523588	     -4.12658600	     -1.25973475	      2.06337625
      0.05000000	      0.59281179	     -1.63981062	     -1.54438158	      1.09146609	      0.92468136	      0.12408286	     -3.29378652	      3.67747295	     -0.30216311	     -6.89235691	      4.53501651	      0.42513481	     -1.91939643	     -2.78482932	     -9.88140022	     -9.58315907	      8.16503789	     -0.52598977	     -4.17294275	     -1.29593806	      2.09826086
      0.06000000	      0.61894193	     -1.63451062	     -1.53747390	      1.09143234	      0.92471541	      0.12402646	     -3.29378302	      3.67068687	     -0.24988312	     -6.94184347	      4.52819855	      0.42367992	     -1.92773825	     -2.77825172	     -9.85859727	     -9.61363178	      8.15599679	     -0.52889034	     -4.20690326	     -1.30716839	      2.10070641
      0.07000000	      0.65229449	     -1.62421946	     -1.53572970	      1.09137939	      0.92476187	      0.12397284	     -3.29136922	      3.65879259	     -0.17168651	     -7.00653607	      4.53147479	      0.42152260	     -1.93551394	     -2.76645595	     -9.83061751	     -9.65852768	      8.14720299	     -0.53106590	     -4.25232464	     -1.32390725	      2.10774365
      0.08000000	      0.70908390	     -1.59875251	     -1.57987333	      1.09132034	      0.92483617	      0.12397126	     -3.29759717	      3.62775760	     -0.02827901	     -7.10140180	      4.60689060	      0.40950340	     -1.96964176	     -2.73684226	     -9.86365782	     -9.71097136	      8.13755803	     -0.54092937	     -4.32451576	     -1.35884370	      2.16724942
      0.09000000	      0.75635728	     -1.59210300	     -1.58130038	      1.09117665	      0.92491588	      0.12392445	     -3.26930578	      3.62186535	      0.06474838	     -7.23025267	      4.59260906	      0.40303526	     -1.96211709	     -2.73278837	     -9.81339467	     -9.80006556	      8.12204743	     -0.54124060	     -4.40134986	     -1.37089975	      2.16818051
      0.10000000	      0.78474995	     -1.57636914	     -1.63546804	      1.09095194	      0.92495523	      0.12395962	     -3.16848569	      3.60746870	      0.20397565	     -7.44929960	      4.67915581	      0.35071724	     -1.90336182	     -2.72609960	     -9.86544194	     -9.95407025	      8.13884298	     -0.54382636	     -4.46598858	     -1.39555701	      2.22933931
      0.11000000	      0.83540656	     -1.57808633	     -1.66102890	      1.09065103	      0.92503498	      0.12396921	     -3.06744500	      3.61523304	      0.28389274	     -7.70426135	      4.73860464	      0.32001792	     -1.83638962	     -2.74271369	     -9.86503392	    -10.15258701	      8.13870469	     -0.54207270	     -4.57182911	     -1.39897548	      2.25917230
      0.12000000	      0.86117846	     -1.57305648	     -1.69934020	      1.09024967	      0.92507660	      0.12401604	     -2.89701525	      3.61957018	      0.37523099	     -8.02782070	      4.81973591	      0.26530702	     -1.70720527	     -2.75884921	     -9.88440889	    -10.40916858	      8.16775979	     -0.53962221	     -4.66304869	     -1.41180625	      2.29518376
      0.13000000	      0.79608889	     -1.56180094	     -1.73597855	      1.08972088	      0.92499231	      0.12409437	     -2.58880298	      3.62692783	      0.49950399	     -8.41237722	      4.90662606	      0.14860131	     -1.43521648	     -2.77842806	     -9.88476362	    -10.73358875	      8.22889191	     -0.54537861	     -4.66179723	     -1.42954882	      2.30548337
      0.14000000	      0.78381474	     -1.55903891	     -1.76716913	      1.08912993	      0.92497999	      0.12420883	     -2.31248527	      3.64580402	      0.56961029	     -8.83510845	      4.99685554	      0.05258206	     -1.19361479	     -2.81233882	     -9.89003020	    -11.10110273	      8.28075666	     -0.55900118	     -4.73597259	     -1.44406149	      2.32922171
      0.15000000	      0.73778388	     -1.56446477	     -1.80537104	      1.08844718	      0.92492291	      0.12437774	     -1.96623160	      3.67987522	      0.62687142	     -9.30950443	      5.06713348	     -0.06850548	     -0.88712846	     -2.86172464	     -9.88943835	    -11.51177920	      8.31804874	     -0.58926903	     -4.78258932	     -1.44914013	      2.36023771
      0.16000000	      0.71409179	     -1.56155433	     -1.84304740	      1.08770771	      0.92487425	      0.12458884	     -1.63032733	      3.70758232	      0.69293206	     -9.80449178	      5.17867746	     -0.17646797	     -0.57404768	     -2.90848404	     -9.91067362	    -11.97595121	      8.41540364	     -0.62358453	     -4.86140686	     -1.46819223	      2.37769761
      0.17000000	      0.67735002	     -1.56667741	     -1.88300057	      1.08689872	      0.92480335	      0.12485618	     -1.26545355	      3.74839449	      0.73429392	    -10.31615257	      5.25384444	     -0.29258207	     -0.22050931	     -2.97008589	     -9.91984242	    -12.48168109	      8.49063264	     -0.67554813	     -4.93372381	     -1.48015944	      2.41063381
      0.18000000	      0.64423832	     -1.57817310	     -1.92599532	      1.08602362	      0.92472220	      0.12517389	     -0.89898815	      3.79844497	      0.77063029	    -10.82803397	      5.32568071	     -0.40048402	      0.14955918	     -3.04278212	     -9.92756697	    -13.01860398	      8.57789387	     -0.74151611	     -5.01734011	     -1.48989670	      2.45070797
      0.19000000	      0.60005434	     -1.59672722	     -1.97269405	      1.08508664	      0.92461600	      0.12553734	     -0.51489401	      3.85772882	      0.80129817	    -11.34131335	      5.36871664	     -0.50373186	      0.54467145	     -3.12583589	     -9.92382645	    -13.57101690	      8.64821436	     -0.82765956	     -5.09202555	     -1.49149142	      2.48935095
      0.20000000	      0.61309390	     -1.61938318	     -2.01682885	      1.08413507	      0.92455505	      0.12593801	     -0.22348747	      3.91842317	      0.82699403	    -11.79239617	      5.44628436	     -0.56285068	      0.89364350	     -3.21598001	     -9.91902371	    -14.15430319	      8.76487780	     -0.90011318	     -5.23231453	     -1.49667402	      2.56718545
      0.21000000	      0.59309378	     -1.64971627	     -2.06452786	      1.08313769	      0.92442731	      0.12639482	      0.11337491	      3.99074162	      0.86079973	    -12.25875085	      5.48971243	     -0.61914016	      1.28065051	     -3.31806126	     -9.91022605	    -14.73478570	      8.85805523	     -0.99536027	     -5.32768792	     -1.49597934	      2.61599131
      0.22000000	      0.61935989	     -1.68266369	     -2.11448568	      1.08213774	      0.92433701	      0.12687743	      0.36733040	      4.06114345	      0.87859659	    -12.65953231	      5.55067269	     -0.64335236	      1.61053591	     -3.42010581	     -9.89403407	    -15.30284419	      8.96135600	     -1.07335146	     -5.47333786	     -1.49553932	      2.70507776
      0.23000000	      0.64086198	     -1.71919559	     -2.16880952	      1.08112246	      0.92420962	      0.12737725	      0.61172539	      4.13320978	      0.89950675	    -13.03113899	      5.61012306	     -0.65145387	      1.93166333	     -3.52425622	     -9.87945459	    -15.84309663	      9.06668155	     -1.15513967	     -5.60475195	     -1.48836143	      2.79396225
      0.24000000	      0.67195126	     -1.75581152	     -2.22519372	      1.08012594	      0.92407038	      0.12790140	      0.82483540	      4.20399175	      0.92052479	    -13.36709454	      5.66852295	     -0.64436237	      2.21476460	     -3.62545707	     -9.86568513	    -16.33465792	      9.16457083	     -1.23423361	     -5.73187715	     -1.48309119	      2.88383226
      0.25000000	      0.69148287	     -1.79280437	     -2.28458546	      1.07914223	      0.92389642	      0.12844032	      1.03207419	      4.27535825	      0.95309753	    -13.67290728	      5.71823061	     -0.62628124	      2.47283097	     -3.72258759	     -9.85523445	    -16.75751945	      9.25430040	     -1.32225302	     -5.83091300	     -1.47574640	      2.96186675
      0.26000000	      0.74934234	     -1.82154881	     -2.34094836	      1.07823004	      0.92375884	      0.12897170	      1.15099461	      4.33311912	      0.96714311	    -13.89804993	      5.78810414	     -0.60471080	      2.64656688	     -3.80439697	     -9.86168707	    -17.11041742	      9.34638261	     -1.38259765	     -5.95333034	     -1.48005689	      3.07027347
      0.27000000	      0.82743054	     -1.84258637	     -2.39629903	      1.07737101	      0.92365232	      0.12949340	      1.22846674	      4.38122028	      0.98154913	    -14.09693515	      5.84241388	     -0.58985127	      2.73788002	     -3.86798286	     -9.87523966	    -17.35279573	      9.40203650	     -1.41907016	     -6.08034781	     -1.49004831	      3.15262870
      0.28000000	      0.87710596	     -1.85342346	     -2.45982931	      1.07656150	      0.92350450	      0.13001376	      1.30115739	      4.42101746	      1.03763571	    -14.23640810	      5.91237446	     -0.56966654	      2.82102751	     -3.91746163	     -9.91361819	    -17.53486225	      9.49511452	     -1.47368744	     -6.15308181	     -1.50916782	      3.25595252
      0.29000000	      0.92522586	     -1.84667655	     -2.52231925	      1.07582246	      0.92337893	      0.13052099	      1.34648002	      4.44264246	      1.11497769	    -14.33062713	      5.96824479	     -0.55167250	      2.85414977	     -3.94066091	     -9.95785882	    -17.62662363	      9.55985452	     -1.52768331	     -6.19959221	     -1.54799816	      3.36230260
